<?xml version="1.0" encoding="UTF-8"?>
<svg id="Capa_2" data-name="Capa 2" xmlns="http://www.w3.org/2000/svg" viewBox="0 0 32 32">
  <defs>
    <style>
      .cls-1 {
        fill: #041e42;
      }

      .cls-2 {
        fill: #fbfbfb;
      }
    </style>
  </defs>
  <g id="Capa_1-2" data-name="Capa 1">
    <rect class="cls-1" width="32" height="32"/>
    <path class="cls-2" d="m27.48,14.99l-4.38-4.37c-.69-.69-1.82-.69-2.51,0l-10.22,10.18c-.12.12-.32.12-.45,0l-4.36-4.31c-.08-.08-.09-.17-.09-.22,0-.05.01-.14.09-.22l4.36-4.37c.08-.08.18-.09.23-.09h0s.14.01.23.09l1.39,1.4c.12.12.12.32,0,.44l-1.57,1.6c-.13-.02-.26-.02-.39,0-.53.08-.96.51-1.04,1.04-.13.85.59,1.57,1.44,1.44.53-.08.96-.51,1.04-1.04.02-.14.02-.28,0-.41l1.57-1.6c.68-.69.67-1.81-.01-2.5l-1.39-1.4c-.34-.34-.78-.52-1.26-.53h0c-.48,0-.92.19-1.26.52l-4.36,4.37c-.34.34-.52.79-.52,1.26,0,.48.19.92.53,1.26l4.36,4.31c.69.68,1.82.68,2.51,0l10.22-10.18c.12-.12.33-.12.45,0l4.38,4.37c.08.08.09.17.09.22s-.01.14-.09.22l-4.38,4.38c-.12.12-.32.12-.45,0l-1.47-1.46c-.08-.08-.09-.17-.09-.22,0-.05.01-.14.09-.22l1.77-1.77c.13.02.26.02.4,0,.53-.08.96-.51,1.04-1.04.13-.85-.59-1.57-1.44-1.44-.53.08-.96.51-1.04,1.04-.02.14-.02.27,0,.4l-1.77,1.76c-.34.34-.52.79-.52,1.26,0,.48.19.92.53,1.26l1.47,1.46c.35.34.8.51,1.25.51.46,0,.91-.17,1.26-.52l4.38-4.38c.34-.34.52-.78.52-1.26s-.19-.92-.52-1.26Zm-17.47,1.78c-.23,0-.41-.18-.41-.41s.18-.41.41-.41.41.18.41.41-.18.41-.41.41Zm12.1-1.23c.23,0,.41.18.41.41s-.18.41-.41.41-.41-.18-.41-.41.18-.41.41-.41Z"/>
  </g>
</svg>