<?xml version="1.0" encoding="UTF-8"?>
<svg id="Capa_2" data-name="Capa 2" xmlns="http://www.w3.org/2000/svg" viewBox="0 0 192 192">
  <defs>
    <style>
      .cls-1 {
        fill: #00997b;
      }

      .cls-2 {
        fill: #fbfbfb;
      }
    </style>
  </defs>
  <g id="Capa_1-2" data-name="Capa 1">
    <rect class="cls-1" width="192" height="192"/>
    <path class="cls-2" d="m164.87,89.96l-26.28-26.24c-4.16-4.15-10.93-4.16-15.09-.01l-61.31,61.05c-.74.74-1.94.74-2.69,0l-26.16-25.85c-.49-.48-.56-1.05-.56-1.34,0-.29.07-.86.55-1.35l26.17-26.22c.49-.49,1.05-.56,1.35-.56h0c.3,0,.87.07,1.35.56l8.34,8.4c.73.73.73,1.92.01,2.66l-9.4,9.61c-.75-.12-1.54-.13-2.35-.01-3.17.48-5.76,3.07-6.24,6.24-.78,5.08,3.54,9.39,8.62,8.62,3.17-.48,5.76-3.07,6.25-6.24.13-.85.11-1.67-.03-2.45l9.42-9.63c4.06-4.15,4.03-10.87-.06-14.98l-8.34-8.4c-2.02-2.03-4.7-3.15-7.57-3.15h-.01c-2.86,0-5.54,1.11-7.56,3.14l-26.17,26.22c-2.02,2.03-3.13,4.72-3.12,7.58,0,2.86,1.14,5.54,3.17,7.55l26.16,25.85c4.16,4.11,10.91,4.1,15.05-.03l61.31-61.05c.74-.74,1.95-.74,2.69,0l26.28,26.24c.48.48.56,1.05.56,1.34s-.07.86-.56,1.34l-26.3,26.26c-.74.74-1.94.74-2.69,0l-8.83-8.73c-.49-.48-.56-1.05-.56-1.34,0-.29.07-.86.56-1.35l10.6-10.59c.77.12,1.57.14,2.39.02,3.17-.48,5.76-3.07,6.24-6.24.78-5.08-3.54-9.39-8.62-8.62-3.17.48-5.76,3.07-6.25,6.24-.13.83-.11,1.63.02,2.4l-10.6,10.59c-2.03,2.02-3.14,4.71-3.13,7.58,0,2.86,1.13,5.55,3.17,7.56l8.83,8.73c2.08,2.05,4.79,3.08,7.51,3.08,2.74,0,5.47-1.04,7.55-3.11l26.3-26.26c2.02-2.02,3.13-4.7,3.13-7.55s-1.11-5.54-3.13-7.55Zm-104.81,10.66c-1.36,0-2.46-1.1-2.46-2.46s1.1-2.46,2.46-2.46,2.46,1.1,2.46,2.46-1.1,2.46-2.46,2.46Zm72.62-7.38c1.36,0,2.46,1.1,2.46,2.46s-1.1,2.46-2.46,2.46-2.46-1.1-2.46-2.46,1.1-2.46,2.46-2.46Z"/>
  </g>
</svg>