<svg width="384" height="197" viewBox="0 0 384 197" fill="none" xmlns="http://www.w3.org/2000/svg">
<path d="M375.64 78.29L305.56 8.31001C294.48 -2.75999 276.42 -2.76999 265.33 8.28001L101.83 171.08C99.8601 173.04 96.6401 173.05 94.6701 171.09L24.9101 102.15C23.6101 100.86 23.4101 99.36 23.4101 98.57C23.4101 97.79 23.5901 96.28 24.8901 94.98L94.6701 25.06C95.9601 23.76 97.4801 23.57 98.2701 23.57C99.0601 23.57 100.58 23.77 101.87 25.07L124.12 47.47C126.06 49.42 126.07 52.6 124.15 54.56L99.1001 80.18C97.0901 79.87 95.0001 79.82 92.8501 80.15C84.4001 81.44 77.4901 88.34 76.2001 96.79C74.1201 110.34 85.6401 121.84 99.2001 119.77C107.65 118.48 114.56 111.58 115.85 103.13C116.2 100.88 116.13 98.69 115.78 96.6L140.89 70.92C151.7 59.86 151.63 41.94 140.73 30.97L118.48 8.57C113.1 3.16 105.94 0.169997 98.3001 0.159997H98.2701C90.6501 0.159997 83.4901 3.13 78.1001 8.52L8.3201 78.44C2.9301 83.84 -0.019899 91.02 0.00010103 98.64C0.030101 106.27 3.0301 113.42 8.4601 118.78L78.2201 187.72C89.3001 198.67 107.3 198.64 118.35 187.64L281.85 24.84C283.83 22.87 287.06 22.87 289.03 24.84L359.11 94.82C360.4 96.11 360.59 97.61 360.59 98.4C360.59 99.19 360.4 100.69 359.11 101.98L288.99 172C287.02 173.97 283.81 173.98 281.82 172.02L258.26 148.73C256.96 147.44 256.76 145.93 256.76 145.15C256.76 144.36 256.95 142.86 258.24 141.56L286.52 113.31C288.57 113.64 290.7 113.69 292.91 113.36C301.36 112.07 308.27 105.17 309.56 96.72C311.64 83.17 300.12 71.67 286.56 73.74C278.11 75.03 271.2 81.93 269.91 90.38C269.57 92.59 269.63 94.73 269.96 96.77L241.7 125C236.3 130.4 233.33 137.57 233.35 145.21C233.37 152.84 236.37 160 241.8 165.37L265.36 188.66C270.89 194.13 278.14 196.87 285.39 196.86C292.68 196.86 299.98 194.09 305.52 188.56L375.64 118.55C381.03 113.17 383.99 106.02 383.99 98.41C383.99 90.8 381.02 83.65 375.64 78.27V78.29ZM96.1601 106.72C92.5301 106.72 89.6001 103.78 89.6001 100.16C89.6001 96.54 92.5401 93.6 96.1601 93.6C99.7801 93.6 102.72 96.54 102.72 100.16C102.72 103.78 99.7801 106.72 96.1601 106.72ZM289.8 87.03C293.43 87.03 296.36 89.97 296.36 93.59C296.36 97.21 293.42 100.15 289.8 100.15C286.18 100.15 283.24 97.21 283.24 93.59C283.24 89.97 286.18 87.03 289.8 87.03Z" fill="#FBFBFB"/>
</svg>
